<?xml version="1.0" encoding="UTF-8" standalone="no"?>
<!DOCTYPE svg PUBLIC "-//W3C//DTD SVG 1.1//EN" "http://www.w3.org/Graphics/SVG/1.1/DTD/svg11.dtd">
<svg xmlns="http://www.w3.org/2000/svg" version="1.1" viewBox="0.00 0.00 1024.00 1024.00">
<path fill="#16182b" d="
  M 1024.00 0.00
  L 1024.00 1024.00
  L 0.00 1024.00
  L 0.00 0.00
  L 1024.00 0.00
  Z"
/>
<g stroke-width="2.00" fill="none" stroke-linecap="butt">
<path stroke="#258bb0" vector-effect="non-scaling-stroke" d="
  M 715.23 308.76
  L 714.07 312.29"
/>
<path stroke="#258bb0" vector-effect="non-scaling-stroke" d="
  M 660.92 315.00
  Q 660.98 314.24 660.13 313.00"
/>
<path stroke="#258bb0" vector-effect="non-scaling-stroke" d="
  M 534.17 396.12
  L 534.90 396.56"
/>
<path stroke="#284660" vector-effect="non-scaling-stroke" d="
  M 480.04 318.66
  L 476.46 309.79"
/>
<path stroke="#258bb0" vector-effect="non-scaling-stroke" d="
  M 433.90 309.86
  L 439.51 318.75"
/>
<path stroke="#258bb0" vector-effect="non-scaling-stroke" d="
  M 344.90 327.63
  L 352.90 342.19"
/>
<path stroke="#284660" vector-effect="non-scaling-stroke" d="
  M 463.56 342.33
  Q 461.77 334.90 461.55 327.46"
/>
<path stroke="#247c9f" vector-effect="non-scaling-stroke" d="
  M 566.61 377.26
  L 558.96 382.57"
/>
<path stroke="#247c9f" vector-effect="non-scaling-stroke" d="
  M 556.81 389.19
  L 557.29 399.59"
/>
<path stroke="#258bb0" vector-effect="non-scaling-stroke" d="
  M 394.76 348.19
  L 401.17 357.01"
/>
<path stroke="#284660" vector-effect="non-scaling-stroke" d="
  M 439.94 348.27
  L 443.54 356.68"
/>
<path stroke="#258bb0" vector-effect="non-scaling-stroke" d="
  M 393.81 377.15
  L 387.12 385.15"
/>
<path stroke="#284660" vector-effect="non-scaling-stroke" d="
  M 448.00 377.94
  Q 437.27 382.16 434.05 382.99
  Q 430.20 383.97 426.38 384.64
  A 0.02 0.02 0.0 0 0 426.39 384.68
  L 446.79 384.99"
/>
<path stroke="#258bb0" vector-effect="non-scaling-stroke" d="
  M 302.00 387.40
  L 311.05 399.59"
/>
<path stroke="#284660" vector-effect="non-scaling-stroke" d="
  M 460.79 388.18
  C 457.81 392.74 458.09 395.82 462.84 398.73
  A 0.19 0.19 0.0 0 1 462.74 399.09
  L 451.04 399.21"
/>
<path stroke="#284660" vector-effect="non-scaling-stroke" d="
  M 462.08 421.25
  L 420.69 412.24"
/>
<path stroke="#258bb0" vector-effect="non-scaling-stroke" d="
  M 337.90 412.54
  L 344.68 422.38"
/>
<path stroke="#258bb0" vector-effect="non-scaling-stroke" d="
  M 387.99 442.46
  L 393.18 450.81
  A 0.32 0.32 0.0 0 1 392.97 451.30
  L 392.21 451.45"
/>
<path stroke="#284660" vector-effect="non-scaling-stroke" d="
  M 450.18 442.98
  L 454.99 451.45"
/>
<path stroke="#284660" vector-effect="non-scaling-stroke" d="
  M 440.47 466.21
  L 435.04 456.27"
/>
<path stroke="#258bb0" vector-effect="non-scaling-stroke" d="
  M 338.74 456.44
  L 338.43 465.97"
/>
<path stroke="#284660" vector-effect="non-scaling-stroke" d="
  M 449.74 481.20
  L 435.19 471.61"
/>
<path stroke="#258bb0" vector-effect="non-scaling-stroke" d="
  M 356.52 482.00
  L 351.87 471.77"
/>
</g>
<g fill="#fdfcfd">
<path d="
  M 133.39 691.19
  L 133.39 743.75
  A 0.61 0.61 0.0 0 1 132.78 744.36
  L 117.10 744.36
  A 0.41 0.41 0.0 0 1 116.69 743.95
  L 116.69 664.89
  A 0.50 0.50 0.0 0 1 117.19 664.39
  L 135.53 664.39
  A 0.97 0.95 -13.9 0 1 136.38 664.89
  L 167.50 721.43
  A 0.26 0.25 44.7 0 0 167.95 721.43
  L 197.96 664.83
  A 0.68 0.67 13.8 0 1 198.56 664.47
  L 217.95 664.47
  A 0.49 0.49 0.0 0 1 218.44 664.96
  L 218.44 743.80
  A 0.68 0.67 -90.0 0 1 217.77 744.48
  L 202.21 744.48
  A 0.54 0.53 -90.0 0 1 201.68 743.94
  L 201.68 691.67
  A 0.21 0.21 0.0 0 0 201.29 691.57
  L 173.59 743.81
  A 1.26 1.24 13.7 0 1 172.48 744.47
  L 162.80 744.47
  A 0.97 0.95 -13.9 0 1 161.95 743.97
  L 133.55 691.15
  A 0.09 0.08 -58.8 0 0 133.39 691.19
  Z"
/>
<path d="
  M 282.87 710.55
  L 300.14 710.80
  A 0.31 0.31 0.0 0 0 300.42 710.35
  L 286.47 684.42
  A 0.31 0.31 0.0 0 0 285.93 684.42
  L 253.55 744.22
  A 0.31 0.31 0.0 0 1 253.28 744.38
  L 232.76 744.38
  A 0.31 0.31 0.0 0 1 232.49 743.92
  L 277.25 664.56
  A 0.31 0.31 0.0 0 1 277.52 664.40
  L 294.57 664.40
  A 0.31 0.31 0.0 0 1 294.84 664.56
  L 339.70 743.83
  A 0.31 0.31 0.0 0 1 339.43 744.29
  L 318.97 744.29
  A 0.31 0.31 0.0 0 1 318.69 744.13
  L 310.13 728.18
  A 0.31 0.31 0.0 0 0 309.85 728.02
  L 273.36 728.02
  A 0.31 0.31 0.0 0 1 273.09 727.56
  L 282.60 710.71
  A 0.31 0.31 0.0 0 1 282.87 710.55
  Z"
/>
<path d="
  M 433.09 744.36
  L 412.61 744.36
  A 1.87 1.86 69.7 0 1 411.19 743.70
  L 392.71 721.88
  A 2.94 2.93 69.8 0 0 390.47 720.84
  L 369.08 720.84
  A 0.58 0.58 0.0 0 0 368.50 721.42
  L 368.50 743.53
  A 0.84 0.83 -0.0 0 1 367.66 744.36
  L 351.39 744.36
  A 0.70 0.70 0.0 0 1 350.69 743.66
  L 350.69 705.48
  A 0.63 0.63 0.0 0 1 351.32 704.85
  Q 355.13 704.86 398.20 704.68
  C 405.35 704.65 409.54 705.40 412.76 699.70
  A 3.64 3.56 63.4 0 0 413.21 698.30
  Q 413.57 694.90 413.55 689.58
  C 413.53 684.21 409.98 681.05 404.75 681.04
  Q 364.55 680.97 351.54 680.90
  A 0.84 0.83 90.0 0 1 350.71 680.06
  L 350.71 664.90
  A 0.46 0.46 0.0 0 1 351.17 664.44
  Q 387.83 664.48 407.75 664.39
  Q 412.06 664.37 415.74 665.57
  C 427.76 669.49 431.83 678.71 431.45 690.47
  C 431.29 695.48 432.56 703.30 428.31 709.82
  Q 423.22 717.62 413.91 719.58
  A 0.31 0.31 0.0 0 0 413.74 720.08
  L 433.52 743.43
  A 0.57 0.56 69.9 0 1 433.09 744.36
  Z"
/>
<path d="
  M 492.28 710.84
  L 510.31 710.84
  A 0.34 0.34 0.0 0 0 510.61 710.34
  L 496.57 684.83
  A 0.34 0.34 0.0 0 0 495.97 684.83
  L 463.85 744.15
  A 0.34 0.34 0.0 0 1 463.55 744.33
  L 443.37 744.33
  A 0.34 0.34 0.0 0 1 443.08 743.82
  L 487.76 664.60
  A 0.34 0.34 0.0 0 1 488.06 664.43
  L 504.33 664.43
  A 0.34 0.34 0.0 0 1 504.63 664.60
  L 549.49 743.88
  A 0.34 0.34 0.0 0 1 549.20 744.39
  L 528.96 744.39
  A 0.34 0.34 0.0 0 1 528.66 744.21
  L 519.80 728.11
  A 0.34 0.34 0.0 0 0 519.50 727.93
  L 483.02 727.93
  A 0.34 0.34 0.0 0 1 482.73 727.42
  L 491.98 711.01
  A 0.34 0.34 0.0 0 1 492.28 710.84
  Z"
/>
<path d="
  M 860.81 710.18
  Q 854.33 703.29 843.45 691.39
  A 0.19 0.19 0.0 0 0 843.11 691.52
  L 843.11 743.92
  A 0.40 0.40 0.0 0 1 842.71 744.32
  L 826.91 744.32
  A 0.60 0.60 0.0 0 1 826.31 743.72
  L 826.31 665.04
  A 0.64 0.64 0.0 0 1 826.95 664.40
  L 840.90 664.40
  A 1.59 1.57 67.9 0 1 842.04 664.89
  C 850.52 673.85 862.84 687.60 873.09 698.51
  Q 879.57 705.40 890.45 717.31
  A 0.19 0.19 0.0 0 0 890.79 717.17
  L 890.79 664.77
  A 0.40 0.40 0.0 0 1 891.19 664.37
  L 906.99 664.37
  A 0.60 0.60 0.0 0 1 907.59 664.97
  L 907.59 743.65
  A 0.64 0.64 0.0 0 1 906.95 744.29
  L 893.00 744.29
  A 1.59 1.57 67.9 0 1 891.86 743.80
  C 883.38 734.84 871.06 721.09 860.81 710.18
  Z"
/>
<path d="
  M 575.68 664.43
  Q 600.87 664.47 615.17 664.58
  A 0.49 0.49 0.0 0 1 615.66 665.07
  L 615.66 680.70
  A 0.38 0.37 90.0 0 1 615.29 681.08
  L 584.87 681.08
  A 0.44 0.43 0.0 0 0 584.43 681.51
  L 584.31 743.96
  A 0.47 0.47 0.0 0 1 583.88 744.43
  Q 583.67 744.45 575.54 744.43
  Q 567.41 744.42 567.20 744.40
  A 0.47 0.47 0.0 0 1 566.77 743.93
  L 566.87 681.48
  A 0.44 0.43 0.2 0 0 566.43 681.05
  L 536.01 680.94
  A 0.38 0.37 -89.8 0 1 535.64 680.56
  L 535.70 664.93
  A 0.49 0.49 0.0 0 1 536.19 664.44
  Q 550.49 664.39 575.68 664.43
  Z"
/>
<path d="
  M 711.31 743.97
  A 0.21 0.20 69.4 0 1 711.16 744.31
  L 689.42 744.31
  A 1.07 1.05 69.1 0 1 688.62 743.94
  L 669.49 721.34
  A 1.54 1.53 69.5 0 0 668.33 720.81
  L 646.32 720.81
  A 0.21 0.21 0.0 0 0 646.11 721.02
  L 646.11 743.45
  A 0.88 0.87 -0.0 0 1 645.23 744.32
  L 628.73 744.32
  A 0.43 0.42 -0.0 0 1 628.30 743.90
  L 628.30 705.16
  A 0.46 0.46 0.0 0 1 628.77 704.70
  Q 662.31 704.85 681.17 704.54
  Q 688.00 704.43 689.63 697.74
  Q 690.34 694.81 689.77 688.35
  C 689.36 683.74 686.28 681.09 681.83 681.08
  Q 657.61 681.04 628.71 681.08
  A 0.46 0.45 89.4 0 1 628.25 680.62
  L 628.25 664.98
  A 0.50 0.50 0.0 0 1 628.75 664.48
  Q 660.43 664.47 682.56 664.46
  Q 689.53 664.46 693.16 665.79
  C 704.07 669.80 708.17 679.10 707.76 690.28
  Q 707.70 692.15 707.62 699.37
  C 707.51 709.43 700.89 716.51 691.44 719.66
  A 0.40 0.40 0.0 0 0 691.26 720.30
  L 711.31 743.97
  Z"
/>
<path d="
  M 722.45 724.71
  L 722.45 683.99
  A 19.55 19.55 0.0 0 1 742.00 664.44
  L 791.91 664.44
  A 19.55 19.55 0.0 0 1 811.46 683.99
  L 811.46 724.71
  A 19.55 19.55 0.0 0 1 791.91 744.26
  L 742.00 744.26
  A 19.55 19.55 0.0 0 1 722.45 724.71
  Z"
/>
</g>
<g fill="#21c1ee">
<path d="
  M 687.62 403.14
  C 687.82 410.57 688.79 419.76 687.72 427.66
  A 0.28 0.27 67.7 0 0 688.21 427.87
  Q 696.32 417.47 706.72 409.51
  A 2.97 2.93 83.1 0 0 707.61 408.36
  L 715.09 391.31
  A 0.18 0.17 -27.4 0 1 715.42 391.41
  L 712.37 404.60
  A 0.38 0.38 0.0 0 0 712.95 405.01
  C 715.63 403.32 717.89 400.84 719.42 397.84
  Q 725.66 385.70 729.82 373.27
  C 730.52 371.20 730.30 368.14 729.63 365.58
  Q 727.42 357.24 725.50 346.75
  Q 725.15 344.88 725.09 342.88
  A 0.27 0.27 0.0 0 0 724.61 342.72
  L 714.43 354.76
  A 0.36 0.35 -9.5 0 1 713.85 354.35
  Q 716.24 350.39 718.10 345.37
  A 13.53 13.16 71.8 0 1 719.25 343.01
  Q 725.98 332.05 726.76 330.28
  Q 727.99 327.50 728.25 323.01
  A 0.01 0.01 0.0 0 1 728.26 323.00
  L 729.26 322.85
  A 0.23 0.23 0.0 0 1 729.52 323.09
  L 728.86 334.16
  A 0.40 0.40 0.0 0 0 729.15 334.57
  Q 738.86 337.27 746.79 344.20
  A 0.49 0.49 0.0 0 0 747.52 344.09
  Q 753.40 334.90 757.90 323.80
  A 4.78 4.73 -32.5 0 0 758.23 322.35
  Q 758.46 318.87 757.58 315.22
  Q 755.04 304.63 753.57 297.35
  A 3.03 3.00 -78.4 0 0 752.34 295.47
  L 738.10 285.56
  A 8.07 8.07 0.0 0 0 733.78 284.13
  Q 731.12 284.05 727.97 284.42
  C 722.71 285.05 712.05 288.27 703.76 288.47
  C 698.55 288.60 692.16 285.88 687.55 283.94
  A 0.20 0.20 0.0 0 1 687.65 283.56
  C 692.37 284.17 697.78 285.46 703.57 283.80
  Q 709.23 282.18 730.87 277.59
  Q 733.70 276.99 735.19 277.57
  Q 747.98 282.53 757.81 291.95
  C 759.38 293.46 760.32 296.00 760.52 298.29
  Q 761.51 309.51 762.71 325.76
  A 1.29 1.25 59.8 0 1 762.52 326.53
  C 757.52 334.43 752.92 343.15 746.66 349.97
  A 0.66 0.66 0.0 0 1 745.72 350.01
  Q 738.92 343.61 729.85 339.35
  A 0.22 0.22 0.0 0 0 729.54 339.59
  C 731.64 350.60 735.25 361.33 738.05 372.23
  Q 738.30 373.21 740.87 377.42
  C 742.56 380.19 744.07 386.05 744.73 390.43
  Q 745.27 394.02 746.37 403.08
  A 1.08 1.08 0.0 0 0 747.16 403.99
  C 753.98 405.81 761.96 407.84 768.46 405.44
  Q 774.95 403.05 783.32 399.40
  A 2.19 2.17 -9.4 0 0 784.63 397.59
  L 785.51 387.96
  A 1.08 1.07 67.7 0 1 785.76 387.36
  L 792.98 378.83
  A 2.84 2.82 23.8 0 1 795.53 377.85
  L 802.52 378.82
  A 2.95 2.88 62.4 0 1 803.56 379.16
  Q 806.06 380.50 809.89 380.10
  A 1.89 1.89 0.0 0 1 811.94 381.61
  C 812.71 385.39 815.09 386.18 817.62 388.40
  A 1.65 1.62 19.1 0 1 818.16 389.49
  Q 818.23 390.43 817.50 391.91
  A 0.65 0.65 0.0 0 0 817.66 392.69
  Q 817.72 392.74 818.71 393.09
  C 822.07 394.29 820.19 397.28 819.05 399.50
  A 0.98 0.97 39.2 0 0 819.16 400.57
  Q 821.30 403.14 818.53 405.76
  C 815.03 409.07 813.73 411.95 808.74 412.30
  Q 807.41 412.40 806.51 413.28
  C 802.20 417.52 797.27 418.75 791.25 419.46
  Q 787.99 419.85 782.10 423.12
  Q 771.40 429.06 760.46 435.22
  C 757.78 436.72 755.35 437.58 752.08 436.99
  C 748.29 436.30 741.47 434.89 738.82 438.12
  A 0.96 0.95 39.7 0 1 737.47 438.24
  L 710.97 415.83
  A 0.16 0.16 0.0 0 0 710.76 415.84
  Q 700.80 426.38 691.54 439.10
  A 0.48 0.48 0.0 0 0 691.86 439.86
  C 701.08 441.08 711.28 443.71 718.83 449.42
  C 730.72 458.40 738.83 465.06 751.02 473.68
  Q 759.22 479.48 765.91 485.48
  Q 771.74 490.71 774.66 494.70
  Q 778.51 499.95 781.51 503.56
  A 1.23 1.23 0.0 0 1 781.48 505.17
  Q 767.64 520.50 758.81 530.81
  C 757.86 531.92 755.80 533.12 754.21 533.81
  Q 737.25 541.18 710.13 553.38
  Q 706.56 554.99 691.76 560.46
  C 689.65 561.24 686.43 563.16 684.20 564.67
  Q 667.05 576.30 648.54 587.77
  A 1.97 1.97 0.0 0 0 647.66 589.88
  C 648.96 595.62 646.96 598.40 645.08 603.39
  Q 644.89 603.90 641.64 610.40
  A 3.87 3.86 -30.0 0 0 641.24 611.88
  L 639.99 632.72
  A 1.50 1.50 0.0 0 1 638.61 634.12
  L 635.15 634.37
  A 1.29 1.28 -2.3 0 1 633.77 633.10
  C 633.64 621.13 636.97 609.76 642.19 598.67
  C 644.44 593.89 644.04 588.61 642.73 584.01
  A 0.64 0.64 0.0 0 1 643.10 583.25
  Q 644.17 582.82 647.39 580.90
  Q 650.08 579.30 668.98 566.73
  C 674.67 562.95 682.01 559.80 690.39 556.84
  Q 698.50 553.97 701.31 552.33
  Q 717.70 542.79 737.75 532.36
  C 743.32 529.46 748.22 526.49 754.70 522.70
  C 758.64 520.39 761.14 518.56 763.64 514.98
  Q 766.13 511.42 768.05 508.60
  A 1.96 1.94 54.4 0 0 768.31 506.97
  Q 767.55 504.36 766.36 502.40
  Q 759.70 491.44 750.41 484.33
  Q 727.75 467.02 715.54 458.72
  C 711.81 456.18 707.44 454.38 702.53 452.98
  C 690.69 449.61 676.92 446.56 665.05 442.83
  Q 658.24 440.69 650.15 438.22
  A 0.39 0.38 15.6 0 1 649.89 437.77
  L 649.95 437.51
  A 0.13 0.13 0.0 0 1 650.10 437.41
  Q 660.28 438.91 671.78 439.08
  A 0.40 0.40 0.0 0 0 672.13 438.49
  L 667.80 430.84
  A 0.19 0.19 0.0 0 1 668.07 430.59
  Q 673.79 434.58 680.51 437.16
  A 0.44 0.44 0.0 0 0 681.10 436.84
  Q 684.82 419.91 687.62 403.14
  Z"
/>
<path d="
  M 715.23 308.76
  L 714.07 312.29
  L 711.00 306.04
  A 0.79 0.78 46.9 0 0 709.62 305.99
  L 703.38 316.79
  A 0.85 0.84 28.5 0 1 702.26 317.12
  Q 698.88 315.32 695.65 313.36
  Q 693.28 311.92 690.89 313.34
  A 2.88 2.87 -20.8 0 0 689.53 316.35
  L 692.31 330.87
  A 0.19 0.18 -65.2 0 1 691.97 331.00
  Q 688.92 325.35 685.28 321.35
  A 4.85 4.81 -10.1 0 0 683.43 320.07
  Q 675.35 316.86 671.77 316.38
  Q 666.37 315.66 660.92 315.00
  Q 660.98 314.24 660.13 313.00
  Q 664.30 313.37 667.51 313.54
  Q 669.59 313.64 680.59 317.00
  A 0.24 0.24 0.0 0 0 680.86 316.65
  C 679.48 314.50 673.92 312.80 669.77 311.24
  Q 666.57 310.04 664.54 310.14
  Q 655.55 310.60 646.22 312.56
  A 12.64 12.54 -67.8 0 0 641.73 314.47
  L 623.34 326.96
  A 0.07 0.07 0.0 0 1 623.25 326.86
  L 637.10 309.40
  A 0.27 0.27 0.0 0 0 636.87 308.96
  Q 626.06 309.92 616.36 312.15
  C 611.47 313.27 605.86 316.87 602.42 317.92
  C 600.50 318.51 599.35 318.89 598.02 317.06
  Q 596.63 315.14 596.12 313.63
  A 0.69 0.68 61.8 0 0 595.05 313.30
  L 575.19 328.91
  A 10.64 10.58 87.2 0 0 572.80 331.56
  Q 566.59 341.30 559.79 348.80
  Q 550.73 358.81 548.27 361.77
  Q 546.74 363.61 546.09 365.07
  Q 538.50 382.28 532.37 392.41
  C 531.57 393.73 532.18 396.46 534.17 396.12
  L 534.90 396.56
  Q 536.21 398.09 537.77 397.53
  Q 541.43 396.19 545.20 394.92
  A 0.38 0.37 -14.9 0 1 545.69 395.20
  L 545.72 395.37
  A 0.39 0.39 0.0 0 1 545.45 395.81
  Q 539.94 397.46 536.30 399.96
  A 0.98 0.97 41.4 0 1 535.30 400.02
  C 532.14 398.36 529.41 395.38 530.63 391.63
  Q 531.08 390.26 536.36 373.05
  A 0.30 0.30 0.0 0 0 536.07 372.66
  Q 482.57 373.08 408.73 372.82
  Q 369.01 372.68 348.30 371.86
  C 328.02 371.05 295.79 370.45 267.75 369.26
  Q 196.87 366.27 185.31 365.88
  Q 185.24 365.88 185.12 365.88
  C 259.11 362.75 331.24 360.93 411.94 360.38
  Q 489.10 359.84 534.56 359.64
  Q 536.15 359.63 537.76 359.20
  A 2.51 2.47 13.3 0 0 538.96 358.47
  C 549.23 347.05 558.25 334.84 564.79 328.46
  Q 566.50 326.79 567.93 325.77
  C 576.76 319.46 585.13 313.20 591.84 305.11
  A 0.29 0.29 0.0 0 0 591.59 304.64
  Q 586.87 305.01 577.55 305.08
  Q 527.30 305.44 434.27 305.45
  Q 430.05 305.45 426.15 304.13
  Q 414.94 300.35 404.50 296.65
  A 0.31 0.31 0.0 0 1 404.60 296.04
  L 601.74 294.10
  A 0.38 0.38 0.0 0 1 602.12 294.48
  L 602.26 308.92
  A 0.75 0.75 0.0 0 0 603.34 309.58
  C 607.07 307.75 610.11 306.17 613.78 305.26
  Q 630.26 301.17 646.28 302.49
  C 647.94 302.63 648.41 303.05 648.50 304.61
  A 0.53 0.52 83.3 0 0 649.12 305.10
  Q 653.50 304.30 661.90 301.43
  Q 664.12 300.67 666.78 301.73
  Q 677.86 306.10 684.71 309.40
  A 1.51 1.51 0.0 0 0 686.03 309.40
  Q 687.23 308.83 690.32 307.31
  C 693.06 305.97 697.43 307.56 700.22 308.73
  A 2.06 2.05 -58.0 0 0 702.57 308.18
  Q 707.11 302.90 709.53 296.95
  A 0.62 0.62 0.0 0 0 708.88 296.10
  Q 696.48 297.53 685.62 291.88
  A 0.35 0.35 0.0 0 1 685.48 291.39
  L 685.60 291.18
  A 0.08 0.07 -67.3 0 1 685.69 291.14
  Q 692.75 293.43 696.78 293.56
  Q 701.78 293.72 710.49 292.65
  C 715.59 292.03 722.09 294.40 727.03 295.55
  A 1.05 1.05 0.0 0 1 727.76 296.16
  L 732.46 306.59
  A 0.25 0.25 0.0 0 1 732.08 306.89
  Q 730.04 305.33 723.18 299.46
  Q 718.95 295.85 714.15 295.16
  A 0.54 0.53 -85.9 0 0 713.54 295.70
  Q 713.53 302.16 715.23 308.76
  Z"
/>
<path d="
  M 433.90 309.86
  L 439.51 318.75
  L 423.62 318.76
  A 0.32 0.32 0.0 0 1 423.38 318.22
  Q 427.23 314.08 431.25 310.00
  Q 432.34 308.89 433.90 309.86
  Z"
/>
<path d="
  M 344.90 327.63
  L 352.90 342.19
  L 330.54 342.36
  A 0.43 0.43 0.0 0 1 330.20 341.65
  Q 335.81 334.98 341.58 328.35
  Q 343.52 326.13 344.90 327.63
  Z"
/>
<path d="
  M 566.61 377.26
  L 558.96 382.57
  Q 555.90 384.82 556.81 389.19
  L 557.29 399.59
  C 557.20 401.41 556.19 403.27 556.32 404.80
  Q 556.49 406.91 557.34 408.95
  A 0.64 0.64 0.0 0 1 556.76 409.84
  Q 554.67 409.88 553.63 410.84
  A 2.82 2.24 36.4 0 1 550.61 410.95
  Q 547.92 409.44 545.33 406.31
  A 0.96 0.95 28.0 0 1 545.11 405.60
  L 545.40 402.56
  A 1.31 1.30 27.0 0 1 547.68 401.82
  Q 548.18 402.39 549.08 404.36
  A 1.17 1.10 73.0 0 1 548.28 405.99
  Q 548.06 406.02 547.94 406.05
  A 0.23 0.23 0.0 0 0 547.98 406.50
  L 550.62 406.74
  A 0.88 0.87 -82.4 0 0 551.55 406.02
  L 551.62 405.61
  A 1.10 1.08 79.8 0 1 552.11 404.89
  Q 553.46 404.08 553.40 403.00
  Q 552.87 393.28 553.39 384.23
  Q 553.57 381.16 555.88 379.34
  Q 561.46 374.95 567.94 367.47
  C 572.79 361.86 581.51 359.94 588.88 358.00
  A 1.03 1.03 0.0 0 0 589.42 357.64
  L 608.65 332.32
  A 0.16 0.16 0.0 0 1 608.92 332.49
  Q 604.67 340.89 599.69 347.72
  A 0.29 0.29 0.0 0 0 600.09 348.12
  Q 602.60 346.33 608.13 343.40
  C 612.24 341.22 615.17 342.27 620.22 343.56
  C 624.93 344.76 631.92 347.60 637.37 346.83
  Q 642.57 346.10 647.02 344.78
  Q 648.89 344.23 651.00 344.73
  Q 669.46 349.04 687.24 353.32
  A 0.12 0.12 0.0 0 1 687.34 353.46
  L 687.34 353.47
  A 0.26 0.26 0.0 0 1 687.06 353.69
  L 666.00 351.77
  A 0.07 0.06 71.7 0 0 665.95 351.88
  L 676.93 364.85
  A 0.29 0.29 0.0 0 1 676.54 365.27
  Q 666.77 357.89 655.92 351.94
  A 0.53 0.52 17.0 0 0 655.14 352.35
  L 653.78 367.30
  A 0.71 0.71 0.0 0 0 654.18 368.00
  Q 657.82 369.70 661.59 374.84
  A 0.38 0.37 71.8 0 1 661.29 375.44
  L 658.12 375.44
  A 0.61 0.60 -6.5 0 0 657.53 376.18
  L 662.47 397.00
  A 0.17 0.17 0.0 0 1 662.16 397.12
  L 652.09 378.83
  A 0.39 0.38 -48.9 0 0 651.39 378.88
  Q 650.79 380.49 650.68 380.73
  Q 646.48 389.99 635.96 407.56
  A 0.26 0.26 0.0 0 1 635.48 407.37
  L 637.63 396.75
  A 0.06 0.05 65.7 0 0 637.53 396.71
  Q 635.72 399.56 629.74 407.98
  Q 619.65 422.18 611.64 435.76
  A 3.04 3.04 0.0 0 1 609.02 437.26
  Q 602.86 437.29 475.25 437.27
  Q 399.04 437.25 355.26 436.19
  Q 290.07 434.62 233.26 432.18
  Q 192.08 430.41 169.74 429.62
  A 0.32 0.32 0.0 0 1 169.43 429.29
  L 169.43 429.27
  A 0.30 0.30 0.0 0 1 169.73 428.97
  Q 188.89 428.94 204.43 428.30
  Q 226.67 427.38 239.08 427.08
  C 264.72 426.45 285.85 425.79 309.32 425.79
  Q 582.53 425.70 605.25 425.68
  Q 608.37 425.68 611.47 425.44
  A 2.16 2.14 18.3 0 0 612.90 424.73
  Q 613.78 423.74 614.73 422.22
  C 621.04 412.04 633.65 388.14 644.79 372.58
  A 0.30 0.30 0.0 0 0 644.55 372.10
  L 572.48 372.10
  A 2.94 2.94 0.0 0 0 570.26 373.11
  L 566.61 377.26
  Z"
/>
<ellipse cx="0.00" cy="0.00" transform="translate(718.77,340.44) rotate(-81.8)" rx="2.15" ry="0.46"/>
<path d="
  M 394.76 348.19
  L 401.17 357.01
  L 376.30 357.24
  A 0.16 0.16 0.0 0 1 376.20 356.95
  Q 381.60 352.98 386.97 348.99
  Q 390.90 346.07 394.76 348.19
  Z"
/>
<path d="
  M 393.81 377.15
  L 387.12 385.15
  Q 381.62 382.42 376.70 377.02
  A 0.24 0.24 0.0 0 1 376.87 376.62
  Q 385.52 376.12 393.81 377.15
  Z"
/>
<path d="
  M 302.00 387.40
  L 311.05 399.59
  L 286.41 400.05
  A 0.37 0.36 -68.1 0 1 286.15 399.43
  L 299.17 386.42
  A 0.77 0.76 -58.3 0 1 299.97 386.23
  Q 301.48 386.76 302.00 387.40
  Z"
/>
<path d="
  M 541.37 404.72
  Q 539.01 403.52 537.17 401.54
  A 0.68 0.68 0.0 0 1 537.15 400.64
  Q 538.13 399.48 539.11 398.95
  A 0.76 0.75 -39.5 0 1 539.97 399.03
  L 543.44 401.96
  A 0.85 0.85 0.0 0 1 542.88 403.46
  Q 541.81 403.44 541.92 404.34
  A 0.38 0.38 0.0 0 1 541.37 404.72
  Z"
/>
<path d="
  M 337.90 412.54
  L 344.68 422.38
  L 324.32 422.68
  A 0.24 0.23 -68.2 0 1 324.15 422.28
  Q 329.03 417.42 334.24 412.85
  C 335.35 411.87 336.68 411.79 337.90 412.54
  Z"
/>
<path d="
  M 669.59 553.23
  A 0.20 0.20 0.0 0 1 669.31 553.21
  L 669.30 553.20
  A 0.14 0.13 46.6 0 1 669.30 553.01
  C 674.23 547.92 680.94 543.57 684.49 536.89
  Q 693.46 519.97 703.11 505.69
  A 0.34 0.34 0.0 0 0 702.89 505.16
  L 659.04 497.53
  A 1.70 1.69 23.4 0 0 657.41 498.17
  Q 655.25 500.98 640.69 518.20
  C 628.37 532.77 615.48 546.63 603.50 560.70
  A 12.08 11.93 -84.4 0 1 600.41 563.27
  Q 588.89 569.90 579.63 574.87
  Q 531.78 600.54 495.97 619.01
  Q 475.34 629.64 467.29 634.68
  Q 467.21 634.72 467.15 634.47
  A 0.05 0.04 -27.1 0 1 467.17 634.42
  Q 469.08 632.87 471.39 631.40
  Q 484.64 622.93 493.86 616.87
  C 506.97 608.24 522.06 599.57 535.71 590.78
  Q 542.32 586.54 554.92 578.92
  Q 574.98 566.79 592.52 555.51
  Q 598.65 551.56 601.72 548.23
  Q 634.19 512.96 645.35 500.71
  A 0.08 0.07 -79.7 0 0 645.27 500.59
  L 624.57 508.82
  A 0.08 0.08 0.0 0 1 624.49 508.68
  L 646.60 492.81
  A 0.63 0.62 -40.3 0 0 646.68 491.86
  Q 645.71 490.88 644.72 490.26
  Q 638.42 486.37 630.63 482.10
  A 10.47 10.22 80.4 0 1 628.57 480.60
  Q 627.06 479.18 626.86 478.90
  Q 621.47 471.52 616.82 464.34
  A 3.60 3.59 31.2 0 1 616.26 462.07
  C 617.37 449.21 619.19 440.67 622.02 425.34
  A 0.30 0.30 0.0 0 1 622.62 425.36
  Q 623.40 433.03 623.83 442.00
  C 624.14 448.44 623.51 455.64 623.64 462.02
  A 3.21 3.21 0.0 0 0 624.45 464.10
  Q 630.38 470.80 637.38 477.40
  Q 644.35 483.99 653.17 485.90
  Q 688.90 493.66 694.76 494.74
  Q 708.21 497.23 714.96 498.02
  C 721.97 498.84 727.35 498.57 733.34 500.37
  Q 735.07 500.89 740.07 503.41
  Q 742.96 504.87 749.43 507.35
  A 0.29 0.28 -71.6 0 1 749.60 507.70
  L 749.60 507.71
  A 0.30 0.29 11.6 0 1 749.28 507.91
  L 719.42 503.79
  A 1.67 1.67 0.0 0 0 717.81 504.51
  Q 707.02 520.64 693.72 536.23
  C 692.40 537.78 690.76 539.33 688.45 540.53
  Q 678.71 545.59 669.59 553.23
  Z"
/>
<path d="
  M 387.99 442.46
  L 393.18 450.81
  A 0.32 0.32 0.0 0 1 392.97 451.30
  L 392.21 451.45
  L 377.46 451.30
  A 0.27 0.27 0.0 0 1 377.27 450.84
  Q 381.07 446.97 384.86 442.88
  C 385.81 441.85 386.83 441.81 387.99 442.46
  Z"
/>
<path d="
  M 338.74 456.44
  L 338.43 465.97
  L 328.64 456.72
  A 0.22 0.21 -23.3 0 1 328.79 456.35
  L 338.74 456.44
  Z"
/>
<path d="
  M 351.87 471.77
  L 356.52 482.00
  L 342.12 481.85
  A 0.47 0.47 0.0 0 1 341.74 481.10
  Q 344.32 477.54 347.32 474.07
  Q 349.33 471.74 351.87 471.77
  Z"
/>
<path d="
  M 192.74 490.66
  Q 195.68 490.27 206.51 490.02
  Q 223.07 489.63 249.00 488.72
  Q 305.51 486.74 365.25 486.37
  Q 375.51 486.31 578.76 485.39
  Q 585.82 485.36 593.03 485.14
  A 0.35 0.35 0.0 0 1 593.36 485.63
  C 588.84 496.02 583.86 506.47 577.56 517.39
  Q 571.36 528.15 566.43 537.24
  A 2.72 2.71 -77.7 0 1 564.25 538.65
  L 549.42 539.75
  A 0.20 0.20 0.0 0 1 549.24 539.43
  L 575.31 501.95
  A 0.53 0.53 0.0 0 0 574.88 501.11
  Q 517.49 500.48 428.27 498.99
  C 373.74 498.07 318.93 496.05 265.00 493.78
  Q 199.85 491.04 192.76 490.96
  A 0.15 0.15 0.0 0 1 192.74 490.66
  Z"
/>
<path d="
  M 253.00 636.88
  C 257.15 636.75 262.64 636.34 267.27 636.32
  Q 326.59 636.01 388.59 634.88
  C 403.54 634.61 424.73 634.67 441.22 634.21
  A 3.53 3.51 19.9 0 0 443.72 633.05
  Q 455.62 619.92 465.69 609.44
  Q 493.81 580.14 520.71 553.47
  A 0.33 0.33 0.0 0 0 520.48 552.90
  L 370.24 550.74
  A 0.06 0.06 0.0 0 1 370.18 550.69
  L 370.18 550.68
  A 0.16 0.15 -4.4 0 1 370.32 550.53
  Q 377.80 549.81 395.25 549.43
  Q 474.45 547.69 523.00 546.14
  Q 544.60 545.45 554.73 543.88
  Q 568.47 541.75 583.20 540.17
  A 0.27 0.27 0.0 0 1 583.44 540.60
  C 581.07 543.58 574.63 545.54 571.30 546.57
  Q 546.96 554.09 530.08 559.60
  Q 526.91 560.63 523.98 563.21
  Q 519.09 567.50 499.35 585.60
  C 490.74 593.49 483.91 600.59 476.28 609.83
  Q 457.99 631.96 451.28 639.55
  C 450.01 640.99 448.63 640.62 446.86 640.67
  Q 443.07 640.78 403.51 639.81
  Q 352.10 638.56 253.12 637.11
  A 0.17 0.17 0.0 0 1 252.95 636.95
  L 252.95 636.93
  A 0.05 0.05 0.0 0 1 253.00 636.88
  Z"
/>
<path d="
  M 630.10 598.43
  A 0.18 0.18 0.0 0 1 630.42 598.58
  Q 626.57 610.27 629.91 622.11
  A 0.16 0.16 0.0 0 1 629.80 622.31
  A 0.18 0.18 0.0 0 1 629.58 622.19
  Q 626.73 611.81 621.94 598.47
  C 618.22 588.11 617.91 576.01 618.24 564.76
  A 0.94 0.94 0.0 0 1 618.84 563.90
  L 674.34 541.83
  A 0.17 0.16 -25.7 0 1 674.55 541.90
  L 674.55 541.91
  A 0.15 0.14 60.6 0 1 674.50 542.10
  C 659.31 551.63 642.90 559.97 628.02 567.23
  A 1.50 1.48 79.5 0 0 627.19 568.45
  Q 625.97 582.75 625.72 595.99
  Q 625.63 600.68 626.39 604.88
  A 0.34 0.34 0.0 0 0 627.05 604.91
  Q 628.01 601.52 630.10 598.43
  Z"
/>
<path d="
  M 492.83 570.90
  L 490.48 573.68
  A 2.46 2.44 -69.0 0 1 488.55 574.55
  Q 429.90 573.19 393.25 572.74
  Q 385.64 572.65 379.50 572.11
  Q 379.42 572.10 379.38 572.07
  A 0.12 0.08 -19.4 0 1 379.49 571.92
  Q 383.85 571.60 387.00 571.56
  Q 415.25 571.17 476.00 570.38
  Q 489.88 570.20 492.60 570.37
  A 0.32 0.32 0.0 0 1 492.83 570.90
  Z"
/>
<path d="
  M 338.21 593.86
  L 338.21 593.85
  A 0.06 0.05 -5.5 0 1 338.27 593.80
  C 343.33 593.49 349.81 593.06 355.83 593.01
  Q 411.84 592.51 473.12 591.62
  A 0.44 0.44 0.0 0 1 473.40 592.40
  L 470.35 594.97
  A 2.82 2.81 -64.6 0 1 468.51 595.63
  L 338.26 593.91
  A 0.04 0.04 0.0 0 1 338.21 593.86
  Z"
/>
<path d="
  M 301.52 615.83
  C 307.17 615.47 314.39 614.98 321.11 614.90
  Q 383.58 614.21 451.92 613.07
  A 0.49 0.49 0.0 0 1 452.24 613.93
  L 448.84 616.81
  A 3.15 3.13 -64.7 0 1 446.79 617.55
  L 301.51 615.95
  A 0.05 0.05 0.0 0 1 301.46 615.90
  L 301.46 615.89
  A 0.07 0.06 -5.7 0 1 301.52 615.83
  Z"
/>
</g>
<g fill="#285471">
<path d="
  M 0.36 1.27
  Q 0.32 1.11 0.40 1.00
  A 0.06 0.05 -36.2 0 1 0.50 1.01
  Q 0.57 1.22 0.48 1.31
  A 0.08 0.07 62.6 0 1 0.36 1.27
  Z"
/>
<path d="
  M 0.42 2.06
  Q 0.53 2.06 0.53 3.65
  Q 0.65 258.24 0.65 512.83
  Q 0.65 767.42 0.52 1022.01
  Q 0.52 1023.60 0.41 1023.60
  Q 0.30 1023.60 0.30 1022.01
  Q 0.17 767.42 0.17 512.83
  Q 0.18 258.24 0.31 3.65
  Q 0.31 2.06 0.42 2.06
  Z"
/>
<path d="
  M 714.73 290.14
  A 0.31 0.31 0.0 0 1 714.41 289.86
  L 714.40 289.81
  A 0.24 0.23 -10.8 0 1 714.58 289.55
  Q 721.40 287.92 731.71 287.11
  C 737.51 286.66 744.54 292.30 747.84 296.54
  C 750.28 299.67 751.88 304.49 753.56 308.69
  Q 755.16 312.70 755.91 317.05
  A 0.46 0.46 0.0 0 1 755.38 317.58
  Q 754.48 317.43 753.42 315.59
  C 749.64 309.01 746.94 302.67 742.64 295.33
  Q 738.90 288.93 732.07 288.66
  Q 726.36 288.43 718.45 289.79
  Q 717.11 290.02 714.73 290.14
  Z"
/>
<path d="
  M 744.00 302.15
  Q 749.00 313.02 748.99 319.51
  Q 748.99 328.65 748.98 328.90
  A 0.18 0.18 0.0 0 1 748.64 328.98
  Q 746.81 325.68 743.90 323.43
  A 0.88 0.88 0.0 0 1 743.58 322.49
  Q 744.99 317.29 744.56 312.76
  Q 743.59 302.33 743.60 302.22
  A 0.21 0.21 0.0 0 1 744.00 302.15
  Z"
/>
<path d="
  M 714.07 312.29
  L 715.23 308.76
  L 720.87 304.75
  A 0.62 0.61 -89.5 0 1 721.72 305.62
  Q 718.08 310.61 716.60 316.71
  A 0.22 0.22 0.0 0 1 716.18 316.75
  L 714.07 312.29
  Z"
/>
<path d="
  M 476.46 309.79
  L 480.04 318.66
  L 439.51 318.75
  L 433.90 309.86
  L 476.46 309.79
  Z"
/>
<path d="
  M 717.21 328.09
  L 710.21 319.82
  A 1.41 1.40 -40.6 0 0 708.21 319.67
  Q 707.37 320.40 706.07 320.81
  A 1.69 1.67 -28.9 0 1 704.28 320.30
  L 703.84 319.77
  A 0.54 0.54 0.0 0 1 704.24 318.88
  C 707.65 318.84 708.38 315.50 708.90 312.77
  A 0.55 0.55 0.0 0 1 709.92 312.60
  C 713.04 318.15 716.20 322.45 717.68 327.84
  A 0.27 0.27 0.0 0 1 717.21 328.09
  Z"
/>
<path d="
  M 660.13 313.00
  Q 660.98 314.24 660.92 315.00
  Q 658.65 314.50 657.41 315.65
  Q 653.02 319.72 647.44 321.82
  A 0.20 0.20 0.0 0 0 647.44 322.19
  Q 656.23 325.80 663.63 332.17
  A 0.05 0.05 0.0 0 1 663.57 332.25
  Q 651.34 326.51 638.52 324.80
  A 0.32 0.31 25.8 0 1 638.33 324.27
  C 640.25 322.26 642.29 320.65 645.02 319.51
  Q 652.83 316.23 660.13 313.00
  Z"
/>
<path d="
  M 618.22 316.60
  Q 616.60 318.11 611.98 320.48
  Q 600.70 326.27 596.56 328.22
  A 0.51 0.51 0.0 0 1 596.02 327.37
  L 598.05 325.65
  A 0.48 0.48 0.0 0 0 597.76 324.80
  C 589.66 324.54 586.48 330.95 582.23 336.63
  Q 580.38 339.10 578.58 341.21
  Q 569.60 351.74 561.97 363.66
  A 0.15 0.15 0.0 0 1 561.70 363.53
  Q 562.19 362.15 564.63 354.60
  C 567.03 347.14 570.17 341.13 574.64 334.90
  Q 577.02 331.59 580.53 329.30
  Q 588.81 323.90 595.92 319.35
  A 1.65 1.65 0.0 0 1 598.06 319.67
  L 598.85 320.61
  A 2.80 2.79 61.3 0 0 601.79 321.48
  L 618.18 316.53
  A 0.04 0.04 0.0 0 1 618.22 316.60
  Z"
/>
<path d="
  M 461.55 327.46
  Q 461.77 334.90 463.56 342.33
  L 352.90 342.19
  L 344.90 327.63
  Q 350.63 327.09 356.25 327.14
  Q 408.89 327.60 461.55 327.46
  Z"
/>
<path d="
  M 744.92 340.84
  Q 744.10 340.25 742.93 338.87
  A 5.41 5.02 84.6 0 0 741.82 337.88
  L 733.94 332.63
  A 1.24 1.24 0.0 0 1 733.60 330.89
  L 734.17 330.08
  A 1.36 1.36 0.0 0 1 736.32 329.97
  L 745.23 340.50
  A 0.23 0.23 0.0 0 1 744.92 340.84
  Z"
/>
<path d="
  M 617.26 341.27
  A 0.01 0.01 0.0 0 1 617.26 341.26
  L 617.27 341.21
  A 10.60 2.00 12.1 0 1 628.05 341.48
  L 628.36 341.55
  A 10.60 2.00 12.1 0 1 638.31 345.72
  L 638.30 345.77
  A 0.01 0.01 0.0 0 1 638.29 345.78
  L 617.26 341.27
  Z"
/>
<path d="
  M 439.94 348.27
  L 443.54 356.68
  L 401.17 357.01
  L 394.76 348.19
  L 439.94 348.27
  Z"
/>
<path d="
  M 534.90 396.56
  L 534.17 396.12
  L 533.81 394.46
  A 2.65 2.65 0.0 0 1 534.78 391.81
  C 540.22 387.61 543.18 380.48 545.57 374.06
  C 547.23 369.59 548.66 364.86 549.91 363.82
  A 0.17 0.16 72.3 0 1 550.18 363.96
  C 549.29 376.03 544.26 387.40 535.09 395.77
  Q 534.82 396.01 534.90 396.56
  Z"
/>
<path d="
  M 708.44 376.20
  Q 708.47 378.30 707.65 382.72
  Q 707.41 383.98 707.93 390.09
  A 0.74 0.73 -0.4 0 0 708.62 390.76
  L 709.34 390.80
  A 1.01 1.00 -83.5 0 1 710.26 391.97
  Q 709.19 398.30 703.52 402.48
  A 0.22 0.22 0.0 0 1 703.17 402.29
  L 703.70 393.55
  A 2.71 2.60 -57.9 0 0 703.42 392.20
  L 702.44 390.23
  A 1.07 1.06 -45.8 0 1 702.43 389.20
  C 702.92 388.29 704.24 387.03 704.69 386.02
  Q 706.13 382.81 708.02 376.15
  A 0.22 0.21 -37.9 0 1 708.44 376.20
  Z"
/>
<path d="
  M 448.00 377.94
  Q 437.27 382.16 434.05 382.99
  Q 430.20 383.97 426.38 384.64
  A 0.02 0.02 0.0 0 0 426.39 384.68
  L 446.79 384.99
  L 387.12 385.15
  L 393.81 377.15
  L 448.00 377.94
  Z"
/>
<path d="
  M 460.79 388.18
  C 457.81 392.74 458.09 395.82 462.84 398.73
  A 0.19 0.19 0.0 0 1 462.74 399.09
  L 451.04 399.21
  L 311.05 399.59
  L 302.00 387.40
  Q 316.00 387.35 359.25 388.15
  Q 386.59 388.65 460.79 388.18
  Z"
/>
<path d="
  M 636.64 425.36
  A 0.21 0.21 0.0 0 1 636.22 425.32
  L 636.08 410.88
  A 2.51 2.48 -24.9 0 1 636.70 409.21
  L 649.43 394.64
  A 0.06 0.06 0.0 0 1 649.51 394.63
  L 649.52 394.64
  A 0.26 0.24 -60.2 0 1 649.60 394.97
  C 645.53 402.22 642.63 406.59 640.06 413.08
  Q 637.78 418.82 636.64 425.36
  Z"
/>
<ellipse cx="0.00" cy="0.00" transform="translate(543.39,405.49) rotate(-151.0)" rx="0.96" ry="0.39"/>
<path d="
  M 420.69 412.24
  L 462.08 421.25
  L 344.68 422.38
  L 337.90 412.54
  L 420.69 412.24
  Z"
/>
<path d="
  M 450.18 442.98
  L 454.99 451.45
  L 392.21 451.45
  L 392.97 451.30
  A 0.32 0.32 0.0 0 0 393.18 450.81
  L 387.99 442.46
  L 450.18 442.98
  Z"
/>
<ellipse cx="0.00" cy="0.00" transform="translate(633.12,461.90) rotate(-116.1)" rx="16.41" ry="1.36"/>
<path d="
  M 747.51 486.93
  L 747.50 486.94
  A 0.34 0.33 -55.6 0 1 747.04 487.03
  Q 739.66 482.04 731.10 478.17
  Q 712.57 469.79 694.01 461.48
  Q 689.38 459.41 679.62 457.66
  Q 663.64 454.79 647.58 452.04
  A 0.28 0.27 -81.7 0 1 647.35 451.72
  L 647.35 451.71
  A 0.27 0.27 0.0 0 1 647.64 451.47
  Q 665.34 452.80 696.24 454.74
  Q 698.41 454.87 701.76 456.78
  Q 725.75 470.39 747.44 486.50
  A 0.32 0.31 -54.5 0 1 747.51 486.93
  Z"
/>
<path d="
  M 435.04 456.27
  L 440.47 466.21
  L 338.43 465.97
  L 338.74 456.44
  L 435.04 456.27
  Z"
/>
<path d="
  M 435.19 471.61
  L 449.74 481.20
  L 356.52 482.00
  L 351.87 471.77
  L 435.19 471.61
  Z"
/>
<path d="
  M 675.20 475.28
  C 679.99 483.00 685.26 485.96 694.38 487.72
  Q 701.36 489.07 709.42 491.77
  A 0.14 0.13 16.3 0 1 709.51 491.93
  A 0.16 0.16 0.0 0 1 709.33 492.06
  Q 693.80 489.74 677.46 487.99
  C 674.99 487.73 673.68 487.87 671.02 486.23
  Q 670.40 485.85 669.14 485.69
  A 0.32 0.32 0.0 0 1 669.09 485.06
  C 675.12 483.25 675.64 481.59 674.78 475.43
  A 0.23 0.23 0.0 0 1 675.20 475.28
  Z"
/>
<path d="
  M 598.94 484.33
  Q 599.12 485.92 598.30 489.53
  Q 596.86 495.93 594.18 508.80
  A 0.29 0.28 -9.9 0 0 594.61 509.10
  Q 602.25 504.28 611.68 500.18
  A 0.29 0.29 0.0 0 1 611.98 500.68
  L 581.42 524.71
  A 0.12 0.12 0.0 0 1 581.23 524.57
  L 598.87 484.32
  A 0.04 0.04 0.0 0 1 598.94 484.33
  Z"
/>
<path d="
  M 712.67 517.29
  L 712.67 517.32
  A 1.30 1.18 60.5 0 1 712.55 517.86
  L 704.34 535.34
  A 0.77 0.77 0.0 0 0 705.31 536.39
  L 744.47 521.56
  A 0.13 0.13 0.0 0 1 744.58 521.79
  Q 726.54 533.46 708.71 542.20
  C 702.71 545.14 696.50 545.54 690.07 546.32
  A 0.37 0.37 0.0 0 1 689.77 545.69
  C 691.70 543.86 693.14 542.53 694.90 540.29
  Q 704.45 528.16 707.20 524.46
  Q 709.95 520.75 712.07 517.13
  A 0.32 0.32 0.0 0 1 712.67 517.29
  Z"
/>
<path d="
  M 576.31 553.96
  C 580.47 549.13 584.92 543.85 591.23 538.69
  Q 599.25 532.12 608.32 524.12
  A 0.04 0.03 -52.0 0 1 608.36 524.11
  Q 608.37 524.11 608.37 524.12
  A 0.03 0.02 18.4 0 1 608.40 524.15
  Q 599.09 535.33 586.12 547.11
  Q 581.95 550.89 576.54 554.22
  A 0.18 0.17 4.2 0 1 576.31 553.96
  Z"
/>
<path d="
  M 568.34 551.72
  Q 563.85 553.90 537.23 567.75
  Q 531.02 570.98 524.53 576.05
  Q 508.41 588.63 493.00 597.97
  Q 492.57 598.22 492.18 598.24
  A 0.19 0.18 -67.8 0 1 492.05 597.92
  Q 493.38 596.68 501.20 588.81
  C 509.73 580.24 516.86 574.50 528.40 564.41
  A 11.60 11.57 -73.8 0 1 532.69 562.04
  L 568.18 551.32
  A 0.22 0.22 0.0 0 1 568.34 551.72
  Z"
/>
<path d="
  M 639.51 590.17
  C 637.65 588.29 633.72 584.13 631.61 588.05
  Q 629.09 592.73 628.19 594.48
  A 0.27 0.27 0.0 0 1 627.69 594.30
  Q 628.23 592.01 628.38 589.79
  C 628.81 583.45 631.09 577.69 634.44 572.45
  A 0.24 0.23 -59.9 0 1 634.75 572.36
  L 634.76 572.37
  A 0.22 0.21 -65.3 0 1 634.86 572.65
  C 633.83 575.10 632.41 578.58 634.55 581.00
  Q 638.36 585.29 639.98 589.87
  A 0.29 0.28 -77.3 0 1 639.51 590.17
  Z"
/>
<path d="
  M 540.35 579.14
  L 540.41 579.27
  A 12.82 0.62 -26.0 0 1 529.16 585.45
  L 528.98 585.54
  A 12.82 0.62 -26.0 0 1 517.18 590.60
  L 517.12 590.47
  L 540.35 579.14
  Z"
/>
</g>
<g fill="#27374f">
<path d="
  M 480.04 318.66
  L 476.46 309.79
  L 566.36 309.61
  A 1.03 1.02 22.4 0 1 567.09 311.36
  L 562.57 315.89
  A 6.19 6.19 0.0 0 1 558.28 317.69
  L 480.04 318.66
  Z"
/>
<path d="
  M 463.56 342.33
  Q 461.77 334.90 461.55 327.46
  L 552.43 327.13
  A 0.40 0.39 70.4 0 1 552.74 327.28
  Q 553.08 327.69 552.62 328.13
  Q 542.55 337.90 540.00 341.23
  A 1.90 1.88 8.3 0 1 539.16 341.85
  Q 537.73 342.37 536.22 342.37
  Q 499.86 342.43 463.56 342.33
  Z"
/>
<path d="
  M 443.54 356.68
  L 439.94 348.27
  L 533.26 348.40
  A 0.47 0.47 0.0 0 1 533.62 349.18
  L 528.90 354.77
  A 0.99 0.97 -77.3 0 1 528.40 355.09
  Q 526.37 355.66 525.28 355.68
  Q 484.42 356.62 443.54 356.68
  Z"
/>
<path d="
  M 689.51 354.17
  Q 689.37 354.22 689.22 354.15
  A 0.08 0.08 0.0 0 1 689.21 354.01
  Q 689.25 353.97 689.48 353.98
  A 0.10 0.10 0.0 0 1 689.51 354.17
  Z"
/>
<path d="
  M 558.96 382.57
  L 566.61 377.26
  L 605.37 377.16
  A 0.34 0.34 0.0 0 1 605.60 377.74
  C 601.13 381.87 597.29 383.80 590.35 384.22
  Q 574.09 385.20 564.26 384.60
  Q 561.88 384.46 558.96 382.57
  Z"
/>
<path d="
  M 446.79 384.99
  L 426.39 384.68
  A 0.02 0.02 0.0 0 1 426.38 384.64
  Q 430.20 383.97 434.05 382.99
  Q 437.27 382.16 448.00 377.94
  L 532.37 378.40
  A 0.65 0.65 0.0 0 1 532.98 379.26
  L 531.53 383.49
  A 0.99 0.99 0.0 0 1 530.59 384.16
  L 446.79 384.99
  Z"
/>
<path d="
  M 451.04 399.21
  L 462.74 399.09
  A 0.19 0.19 0.0 0 0 462.84 398.73
  C 458.09 395.82 457.81 392.74 460.79 388.18
  L 528.98 388.59
  A 0.98 0.98 0.0 0 1 529.89 389.92
  Q 528.03 394.73 531.41 398.16
  A 0.46 0.46 0.0 0 1 531.09 398.95
  L 451.04 399.21
  Z"
/>
<path d="
  M 557.29 399.59
  L 556.81 389.19
  Q 561.99 388.34 567.30 388.35
  Q 586.27 388.39 606.99 388.45
  Q 613.08 388.47 622.34 389.08
  A 0.53 0.53 0.0 0 1 622.76 389.87
  L 618.07 397.99
  A 1.37 1.35 -81.3 0 1 617.18 398.65
  Q 614.56 399.24 612.90 399.25
  Q 585.12 399.33 557.29 399.59
  Z"
/>
<path d="
  M 462.08 421.25
  L 420.69 412.24
  Q 471.14 412.44 521.52 412.21
  Q 529.78 412.18 536.46 411.79
  C 543.15 411.41 549.34 412.04 556.39 411.91
  Q 581.91 411.46 607.05 412.17
  Q 609.38 412.24 610.51 412.42
  A 0.59 0.59 0.0 0 1 610.93 413.29
  L 607.06 420.15
  A 1.27 1.25 14.6 0 1 605.96 420.79
  L 462.08 421.25
  Z"
/>
<path d="
  M 454.99 451.45
  L 450.18 442.98
  Q 452.31 442.83 454.38 442.82
  Q 519.24 442.45 586.21 443.03
  Q 590.93 443.08 593.61 443.66
  A 0.34 0.34 0.0 0 1 593.82 444.19
  Q 589.41 450.63 580.20 450.89
  Q 568.83 451.21 559.02 451.27
  Q 506.99 451.61 454.99 451.45
  Z"
/>
<path d="
  M 440.47 466.21
  L 435.04 456.27
  L 600.16 456.37
  A 0.26 0.26 0.0 0 1 600.36 456.80
  L 593.20 465.27
  A 1.32 1.30 19.9 0 1 592.20 465.73
  L 440.47 466.21
  Z"
/>
<path d="
  M 449.74 481.20
  L 435.19 471.61
  L 586.57 471.56
  A 0.96 0.96 0.0 0 1 587.30 473.14
  L 582.98 478.25
  A 4.63 4.63 0.0 0 1 579.49 479.89
  L 449.74 481.20
  Z"
/>
</g>
<g fill="#16182b">
<path d="
  M 600.70 358.20
  Q 608.85 353.65 613.31 349.22
  A 1.76 1.75 33.2 0 1 615.19 348.83
  Q 624.61 352.60 629.43 354.33
  C 635.30 356.44 640.14 355.70 645.91 354.09
  A 0.22 0.22 0.0 0 1 646.19 354.30
  L 646.19 358.34
  A 0.26 0.26 0.0 0 1 645.94 358.60
  Q 623.43 359.47 600.85 358.79
  A 0.32 0.31 31.2 0 1 600.70 358.20
  Z"
/>
<path d="
  M 783.40 418.41
  L 787.66 413.70
  A 0.12 0.12 0.0 0 0 787.68 413.56
  L 787.54 413.23
  A 0.45 0.45 0.0 0 0 786.89 413.04
  Q 759.36 430.77 756.85 432.60
  Q 754.93 434.00 753.24 433.59
  Q 746.76 432.03 741.22 431.09
  A 2.93 2.79 -42.3 0 0 740.33 431.07
  L 738.83 431.27
  A 1.43 1.43 0.0 0 1 737.73 430.95
  L 717.40 413.75
  A 0.58 0.57 -46.5 0 1 717.38 412.88
  Q 721.20 409.44 723.40 403.63
  Q 725.92 396.97 730.15 386.14
  Q 731.58 382.47 733.51 379.39
  A 1.38 1.38 0.0 0 1 735.66 379.14
  Q 737.78 381.26 738.39 384.62
  Q 739.45 390.43 741.73 402.15
  C 742.58 406.56 744.34 411.13 745.81 415.21
  A 0.43 0.43 0.0 0 0 746.65 415.09
  L 746.97 409.70
  A 0.73 0.72 -86.4 0 1 747.73 409.02
  Q 752.93 409.29 761.99 410.56
  Q 763.29 410.75 765.58 410.32
  A 6.42 5.89 25.1 0 0 767.01 409.87
  Q 778.37 404.80 780.63 403.87
  C 783.60 402.65 787.02 401.46 789.56 403.18
  A 1.15 1.14 -66.3 0 0 791.32 402.49
  L 793.27 394.03
  A 0.21 0.20 -66.9 0 0 793.18 393.80
  L 792.95 393.67
  A 0.15 0.14 13.3 0 0 792.80 393.76
  L 790.22 401.28
  A 0.79 0.79 0.0 0 1 788.71 401.25
  Q 787.01 395.46 788.41 389.19
  A 2.35 2.29 72.6 0 1 788.91 388.20
  L 794.82 381.21
  A 3.28 3.26 -65.9 0 1 797.75 380.08
  Q 800.62 380.47 803.34 379.93
  A 0.49 0.49 0.0 0 1 803.86 380.66
  Q 801.56 384.58 796.85 388.43
  A 0.68 0.68 0.0 0 0 797.53 389.58
  L 799.97 388.60
  A 1.42 1.39 9.5 0 0 800.47 388.25
  L 804.92 383.41
  A 3.49 3.48 38.7 0 1 809.46 382.91
  L 809.48 382.94
  A 2.91 2.90 -47.6 0 1 809.67 387.20
  L 800.45 396.53
  A 0.51 0.51 0.0 0 0 800.37 397.13
  L 800.39 397.18
  A 0.37 0.37 0.0 0 0 800.90 397.28
  Q 804.56 394.96 807.60 392.07
  Q 809.65 390.12 812.01 389.64
  A 1.55 1.55 0.0 0 1 813.71 391.86
  Q 810.79 397.62 804.63 400.27
  A 0.88 0.88 0.0 0 0 804.12 401.27
  Q 804.29 402.04 804.98 402.67
  A 0.60 0.59 -53.0 0 0 805.90 402.54
  Q 807.20 400.39 808.21 399.89
  Q 813.06 397.51 814.94 396.22
  A 0.64 0.64 0.0 0 1 815.94 396.78
  L 815.88 397.86
  A 4.07 4.06 -18.2 0 1 814.43 400.72
  Q 811.53 403.13 806.61 404.66
  A 1.53 1.52 0.7 0 0 805.62 405.62
  L 805.42 406.20
  A 0.34 0.34 0.0 0 0 805.88 406.63
  L 814.73 402.65
  A 0.96 0.96 0.0 0 1 816.03 403.86
  Q 813.01 411.96 805.99 408.47
  A 0.64 0.64 0.0 0 0 805.13 408.77
  Q 804.94 409.15 805.13 410.09
  Q 805.25 410.71 804.86 411.30
  C 802.94 414.16 800.57 415.18 797.27 414.94
  C 793.35 414.66 788.30 416.81 783.66 418.77
  A 0.23 0.23 0.0 0 1 783.40 418.41
  Z"
/>
<rect x="-27.05" y="-22.66" transform="translate(766.74,704.11) rotate(0.1)" width="54.10" height="45.32" rx="6.67"/>
</g>
<g fill="#21c1ee">
<ellipse cx="0.00" cy="0.00" transform="translate(798.01,383.40) rotate(-42.1)" rx="2.36" ry="0.48"/>
<path d="
  M 804.15 389.28
  A 0.43 0.43 0.0 0 1 804.53 390.02
  L 800.26 393.64
  A 0.71 0.71 0.0 0 1 799.18 393.44
  L 799.05 393.19
  A 1.17 1.17 0.0 0 1 799.40 391.71
  Q 802.02 389.81 804.15 389.28
  Z"
/>
<path d="
  M 803.74 400.00
  Q 803.07 400.52 802.67 399.30
  A 0.62 0.62 0.0 0 1 802.95 398.57
  L 806.60 396.50
  A 0.23 0.23 0.0 0 1 806.88 396.87
  L 803.79 399.96
  A 0.28 0.10 -19.3 0 1 803.74 400.00
  Z"
/>
</g>
<g fill="#285471">
<path d="
  M 810.37 400.56
  A 0.22 0.22 0.0 0 1 810.58 400.92
  Q 810.21 401.38 809.67 401.32
  A 0.21 0.20 26.2 0 1 809.55 400.97
  Q 809.88 400.65 810.37 400.56
  Z"
/>
<ellipse cx="0.00" cy="0.00" transform="translate(740.62,408.12) rotate(-117.9)" rx="6.24" ry="0.39"/>
<path d="
  M 785.37 409.84
  Q 785.41 409.96 785.43 410.09
  A 0.08 0.08 0.0 0 1 785.38 410.18
  Q 775.51 414.81 765.26 418.23
  Q 759.36 420.20 759.10 419.51
  Q 758.84 418.81 764.62 416.48
  Q 774.64 412.44 785.16 409.57
  A 0.08 0.08 0.0 0 1 785.25 409.60
  Q 785.32 409.71 785.37 409.84
  Z"
/>
<path d="
  M 728.63 418.27
  Q 728.86 418.07 731.00 420.54
  Q 733.14 423.01 732.91 423.21
  Q 732.68 423.41 730.54 420.94
  Q 728.40 418.47 728.63 418.27
  Z"
/>
<path d="
  M 738.05 421.39
  C 742.11 425.78 745.11 431.02 752.33 427.79
  Q 754.16 426.98 761.13 422.54
  A 7.40 7.16 17.7 0 1 762.44 421.89
  L 769.48 419.22
  A 0.26 0.26 0.0 0 1 769.75 419.64
  Q 764.32 425.02 757.89 428.41
  C 753.46 430.75 746.46 431.72 742.39 428.39
  Q 738.75 425.41 737.41 421.78
  A 0.38 0.38 0.0 0 1 738.05 421.39
  Z"
/>
</g>
<path fill="#27374f" d="
  M 809.03 401.61
  Q 809.01 401.86 808.60 402.09
  A 0.23 0.22 73.0 0 1 808.27 401.91
  Q 808.25 401.78 808.55 401.52
  A 0.31 0.21 -24.2 0 1 809.03 401.61
  Z"
/>
</svg>
