<?xml version="1.0" encoding="UTF-8" standalone="no"?>
<svg
   version="1.1"
   viewBox="0 0 897.45227 102.71201"
   id="svg103"
   sodipodi:docname="maratron-name.svg"
   inkscape:version="1.4.2 (ebf0e940, 2025-05-08)"
   width="897.45227"
   height="102.71201"
   xmlns:inkscape="http://www.inkscape.org/namespaces/inkscape"
   xmlns:sodipodi="http://sodipodi.sourceforge.net/DTD/sodipodi-0.dtd"
   xmlns="http://www.w3.org/2000/svg"
   xmlns:svg="http://www.w3.org/2000/svg">
  <defs
     id="defs103" />
  <sodipodi:namedview
     id="namedview103"
     pagecolor="#ffffff"
     bordercolor="#000000"
     borderopacity="0.25"
     inkscape:showpageshadow="2"
     inkscape:pageopacity="0.0"
     inkscape:pagecheckerboard="0"
     inkscape:deskcolor="#d1d1d1"
     inkscape:zoom="0.92912093"
     inkscape:cx="377.2383"
     inkscape:cy="66.191599"
     inkscape:window-width="1416"
     inkscape:window-height="906"
     inkscape:window-x="259"
     inkscape:window-y="38"
     inkscape:window-maximized="0"
     inkscape:current-layer="svg103" />
  <g
     fill="#fdfcfd"
     id="g32"
     style="fill:#f9fafb;fill-opacity:1"
     transform="matrix(1.1347228,0,0,1.2821372,-132.4108,-851.81349)">
    <path
       d="m 133.39,691.19 v 52.56 a 0.61,0.61 0 0 1 -0.61,0.61 H 117.1 a 0.41,0.41 0 0 1 -0.41,-0.41 v -79.06 a 0.5,0.5 0 0 1 0.5,-0.5 h 18.34 a 0.97,0.95 -13.9 0 1 0.85,0.5 l 31.12,56.54 a 0.26,0.25 44.7 0 0 0.45,0 l 30.01,-56.6 a 0.68,0.67 13.8 0 1 0.6,-0.36 h 19.39 a 0.49,0.49 0 0 1 0.49,0.49 v 78.84 a 0.68,0.67 -90 0 1 -0.67,0.68 h -15.56 a 0.54,0.53 -90 0 1 -0.53,-0.54 v -52.27 a 0.21,0.21 0 0 0 -0.39,-0.1 l -27.7,52.24 a 1.26,1.24 13.7 0 1 -1.11,0.66 h -9.68 a 0.97,0.95 -13.9 0 1 -0.85,-0.5 l -28.4,-52.82 a 0.09,0.08 -58.8 0 0 -0.16,0.04 z"
       id="path25"
       style="fill:#f9fafb;fill-opacity:1" />
    <path
       d="m 282.87,710.55 17.27,0.25 a 0.31,0.31 0 0 0 0.28,-0.45 l -13.95,-25.93 a 0.31,0.31 0 0 0 -0.54,0 l -32.38,59.8 a 0.31,0.31 0 0 1 -0.27,0.16 h -20.52 a 0.31,0.31 0 0 1 -0.27,-0.46 l 44.76,-79.36 a 0.31,0.31 0 0 1 0.27,-0.16 h 17.05 a 0.31,0.31 0 0 1 0.27,0.16 l 44.86,79.27 a 0.31,0.31 0 0 1 -0.27,0.46 h -20.46 a 0.31,0.31 0 0 1 -0.28,-0.16 l -8.56,-15.95 a 0.31,0.31 0 0 0 -0.28,-0.16 h -36.49 a 0.31,0.31 0 0 1 -0.27,-0.46 l 9.51,-16.85 a 0.31,0.31 0 0 1 0.27,-0.16 z"
       id="path26"
       style="fill:#f9fafb;fill-opacity:1" />
    <path
       d="m 433.09,744.36 h -20.48 a 1.87,1.86 69.7 0 1 -1.42,-0.66 l -18.48,-21.82 a 2.94,2.93 69.8 0 0 -2.24,-1.04 h -21.39 a 0.58,0.58 0 0 0 -0.58,0.58 v 22.11 a 0.84,0.83 0 0 1 -0.84,0.83 h -16.27 a 0.7,0.7 0 0 1 -0.7,-0.7 v -38.18 a 0.63,0.63 0 0 1 0.63,-0.63 q 3.81,0.01 46.88,-0.17 c 7.15,-0.03 11.34,0.72 14.56,-4.98 a 3.64,3.56 63.4 0 0 0.45,-1.4 q 0.36,-3.4 0.34,-8.72 c -0.02,-5.37 -3.57,-8.53 -8.8,-8.54 q -40.2,-0.07 -53.21,-0.14 a 0.84,0.83 90 0 1 -0.83,-0.84 V 664.9 a 0.46,0.46 0 0 1 0.46,-0.46 q 36.66,0.04 56.58,-0.05 4.31,-0.02 7.99,1.18 c 12.02,3.92 16.09,13.14 15.71,24.9 -0.16,5.01 1.11,12.83 -3.14,19.35 q -5.09,7.8 -14.4,9.76 a 0.31,0.31 0 0 0 -0.17,0.5 l 19.78,23.35 a 0.57,0.56 69.9 0 1 -0.43,0.93 z"
       id="path27"
       style="fill:#f9fafb;fill-opacity:1" />
    <path
       d="m 492.28,710.84 h 18.03 a 0.34,0.34 0 0 0 0.3,-0.5 l -14.04,-25.51 a 0.34,0.34 0 0 0 -0.6,0 l -32.12,59.32 a 0.34,0.34 0 0 1 -0.3,0.18 h -20.18 a 0.34,0.34 0 0 1 -0.29,-0.51 l 44.68,-79.22 a 0.34,0.34 0 0 1 0.3,-0.17 h 16.27 a 0.34,0.34 0 0 1 0.3,0.17 l 44.86,79.28 a 0.34,0.34 0 0 1 -0.29,0.51 h -20.24 a 0.34,0.34 0 0 1 -0.3,-0.18 l -8.86,-16.1 a 0.34,0.34 0 0 0 -0.3,-0.18 h -36.48 a 0.34,0.34 0 0 1 -0.29,-0.51 l 9.25,-16.41 a 0.34,0.34 0 0 1 0.3,-0.17 z"
       id="path28"
       style="fill:#f9fafb;fill-opacity:1" />
    <path
       d="m 860.81,710.18 q -6.48,-6.89 -17.36,-18.79 a 0.19,0.19 0 0 0 -0.34,0.13 v 52.4 a 0.4,0.4 0 0 1 -0.4,0.4 h -15.8 a 0.6,0.6 0 0 1 -0.6,-0.6 v -78.68 a 0.64,0.64 0 0 1 0.64,-0.64 h 13.95 a 1.59,1.57 67.9 0 1 1.14,0.49 c 8.48,8.96 20.8,22.71 31.05,33.62 q 6.48,6.89 17.36,18.8 a 0.19,0.19 0 0 0 0.34,-0.14 v -52.4 a 0.4,0.4 0 0 1 0.4,-0.4 h 15.8 a 0.6,0.6 0 0 1 0.6,0.6 v 78.68 a 0.64,0.64 0 0 1 -0.64,0.64 H 893 a 1.59,1.57 67.9 0 1 -1.14,-0.49 c -8.48,-8.96 -20.8,-22.71 -31.05,-33.62 z"
       id="path29"
       style="fill:#f9fafb;fill-opacity:1" />
    <path
       d="m 575.68,664.43 q 25.19,0.04 39.49,0.15 a 0.49,0.49 0 0 1 0.49,0.49 v 15.63 a 0.38,0.37 90 0 1 -0.37,0.38 h -30.42 a 0.44,0.43 0 0 0 -0.44,0.43 l -0.12,62.45 a 0.47,0.47 0 0 1 -0.43,0.47 q -0.21,0.02 -8.34,0 -8.13,-0.01 -8.34,-0.03 a 0.47,0.47 0 0 1 -0.43,-0.47 l 0.1,-62.45 a 0.44,0.43 0.2 0 0 -0.44,-0.43 l -30.42,-0.11 a 0.38,0.37 -89.8 0 1 -0.37,-0.38 l 0.06,-15.63 a 0.49,0.49 0 0 1 0.49,-0.49 q 14.3,-0.05 39.49,-0.01 z"
       id="path30"
       style="fill:#f9fafb;fill-opacity:1" />
    <path
       d="m 711.31,743.97 a 0.21,0.2 69.4 0 1 -0.15,0.34 h -21.74 a 1.07,1.05 69.1 0 1 -0.8,-0.37 l -19.13,-22.6 a 1.54,1.53 69.5 0 0 -1.16,-0.53 h -22.01 a 0.21,0.21 0 0 0 -0.21,0.21 v 22.43 a 0.88,0.87 0 0 1 -0.88,0.87 h -16.5 a 0.43,0.42 0 0 1 -0.43,-0.42 v -38.74 a 0.46,0.46 0 0 1 0.47,-0.46 q 33.54,0.15 52.4,-0.16 6.83,-0.11 8.46,-6.8 0.71,-2.93 0.14,-9.39 c -0.41,-4.61 -3.49,-7.26 -7.94,-7.27 q -24.22,-0.04 -53.12,0 a 0.46,0.45 89.4 0 1 -0.46,-0.46 v -15.64 a 0.5,0.5 0 0 1 0.5,-0.5 q 31.68,-0.01 53.81,-0.02 6.97,0 10.6,1.33 c 10.91,4.01 15.01,13.31 14.6,24.49 q -0.06,1.87 -0.14,9.09 c -0.11,10.06 -6.73,17.14 -16.18,20.29 a 0.4,0.4 0 0 0 -0.18,0.64 z"
       id="path31"
       style="fill:#f9fafb;fill-opacity:1" />
    <path
       d="M 722.45,724.71 V 683.99 A 19.55,19.55 0 0 1 742,664.44 h 49.91 a 19.55,19.55 0 0 1 19.55,19.55 v 40.72 a 19.55,19.55 0 0 1 -19.55,19.55 H 742 a 19.55,19.55 0 0 1 -19.55,-19.55 z"
       id="path32"
       style="fill:#f9fafb;fill-opacity:1" />
  </g>
</svg>
