<?xml version="1.0" encoding="UTF-8" standalone="no"?>
<svg
   version="1.1"
   viewBox="0.00 0.00 1024.00 1024.00"
   id="svg103"
   sodipodi:docname="tron.svg"
   inkscape:version="1.4.2 (ebf0e940, 2025-05-08)"
   xmlns:inkscape="http://www.inkscape.org/namespaces/inkscape"
   xmlns:sodipodi="http://sodipodi.sourceforge.net/DTD/sodipodi-0.dtd"
   xmlns="http://www.w3.org/2000/svg"
   xmlns:svg="http://www.w3.org/2000/svg">
  <defs
     id="defs103" />
  <sodipodi:namedview
     id="namedview103"
     pagecolor="#ffffff"
     bordercolor="#000000"
     borderopacity="0.25"
     inkscape:showpageshadow="2"
     inkscape:pageopacity="0.0"
     inkscape:pagecheckerboard="0"
     inkscape:deskcolor="#d1d1d1"
     inkscape:zoom="0.45845737"
     inkscape:cx="131.96429"
     inkscape:cy="609.6532"
     inkscape:window-width="1416"
     inkscape:window-height="906"
     inkscape:window-x="123"
     inkscape:window-y="25"
     inkscape:window-maximized="0"
     inkscape:current-layer="svg103" />
  <g
     fill="#fdfcfd"
     id="g32"
     style="fill:#1c427d;fill-opacity:1">
    <path
       d="   M 133.39 691.19   L 133.39 743.75   A 0.61 0.61 0.0 0 1 132.78 744.36   L 117.10 744.36   A 0.41 0.41 0.0 0 1 116.69 743.95   L 116.69 664.89   A 0.50 0.50 0.0 0 1 117.19 664.39   L 135.53 664.39   A 0.97 0.95 -13.9 0 1 136.38 664.89   L 167.50 721.43   A 0.26 0.25 44.7 0 0 167.95 721.43   L 197.96 664.83   A 0.68 0.67 13.8 0 1 198.56 664.47   L 217.95 664.47   A 0.49 0.49 0.0 0 1 218.44 664.96   L 218.44 743.80   A 0.68 0.67 -90.0 0 1 217.77 744.48   L 202.21 744.48   A 0.54 0.53 -90.0 0 1 201.68 743.94   L 201.68 691.67   A 0.21 0.21 0.0 0 0 201.29 691.57   L 173.59 743.81   A 1.26 1.24 13.7 0 1 172.48 744.47   L 162.80 744.47   A 0.97 0.95 -13.9 0 1 161.95 743.97   L 133.55 691.15   A 0.09 0.08 -58.8 0 0 133.39 691.19   Z"
       id="path25"
       style="fill:#1c427d;fill-opacity:1" />
    <path
       d="   M 282.87 710.55   L 300.14 710.80   A 0.31 0.31 0.0 0 0 300.42 710.35   L 286.47 684.42   A 0.31 0.31 0.0 0 0 285.93 684.42   L 253.55 744.22   A 0.31 0.31 0.0 0 1 253.28 744.38   L 232.76 744.38   A 0.31 0.31 0.0 0 1 232.49 743.92   L 277.25 664.56   A 0.31 0.31 0.0 0 1 277.52 664.40   L 294.57 664.40   A 0.31 0.31 0.0 0 1 294.84 664.56   L 339.70 743.83   A 0.31 0.31 0.0 0 1 339.43 744.29   L 318.97 744.29   A 0.31 0.31 0.0 0 1 318.69 744.13   L 310.13 728.18   A 0.31 0.31 0.0 0 0 309.85 728.02   L 273.36 728.02   A 0.31 0.31 0.0 0 1 273.09 727.56   L 282.60 710.71   A 0.31 0.31 0.0 0 1 282.87 710.55   Z"
       id="path26"
       style="fill:#1c427d;fill-opacity:1" />
    <path
       d="   M 433.09 744.36   L 412.61 744.36   A 1.87 1.86 69.7 0 1 411.19 743.70   L 392.71 721.88   A 2.94 2.93 69.8 0 0 390.47 720.84   L 369.08 720.84   A 0.58 0.58 0.0 0 0 368.50 721.42   L 368.50 743.53   A 0.84 0.83 -0.0 0 1 367.66 744.36   L 351.39 744.36   A 0.70 0.70 0.0 0 1 350.69 743.66   L 350.69 705.48   A 0.63 0.63 0.0 0 1 351.32 704.85   Q 355.13 704.86 398.20 704.68   C 405.35 704.65 409.54 705.40 412.76 699.70   A 3.64 3.56 63.4 0 0 413.21 698.30   Q 413.57 694.90 413.55 689.58   C 413.53 684.21 409.98 681.05 404.75 681.04   Q 364.55 680.97 351.54 680.90   A 0.84 0.83 90.0 0 1 350.71 680.06   L 350.71 664.90   A 0.46 0.46 0.0 0 1 351.17 664.44   Q 387.83 664.48 407.75 664.39   Q 412.06 664.37 415.74 665.57   C 427.76 669.49 431.83 678.71 431.45 690.47   C 431.29 695.48 432.56 703.30 428.31 709.82   Q 423.22 717.62 413.91 719.58   A 0.31 0.31 0.0 0 0 413.74 720.08   L 433.52 743.43   A 0.57 0.56 69.9 0 1 433.09 744.36   Z"
       id="path27"
       style="fill:#1c427d;fill-opacity:1" />
    <path
       d="   M 492.28 710.84   L 510.31 710.84   A 0.34 0.34 0.0 0 0 510.61 710.34   L 496.57 684.83   A 0.34 0.34 0.0 0 0 495.97 684.83   L 463.85 744.15   A 0.34 0.34 0.0 0 1 463.55 744.33   L 443.37 744.33   A 0.34 0.34 0.0 0 1 443.08 743.82   L 487.76 664.60   A 0.34 0.34 0.0 0 1 488.06 664.43   L 504.33 664.43   A 0.34 0.34 0.0 0 1 504.63 664.60   L 549.49 743.88   A 0.34 0.34 0.0 0 1 549.20 744.39   L 528.96 744.39   A 0.34 0.34 0.0 0 1 528.66 744.21   L 519.80 728.11   A 0.34 0.34 0.0 0 0 519.50 727.93   L 483.02 727.93   A 0.34 0.34 0.0 0 1 482.73 727.42   L 491.98 711.01   A 0.34 0.34 0.0 0 1 492.28 710.84   Z"
       id="path28"
       style="fill:#1c427d;fill-opacity:1" />
    <path
       d="   M 860.81 710.18   Q 854.33 703.29 843.45 691.39   A 0.19 0.19 0.0 0 0 843.11 691.52   L 843.11 743.92   A 0.40 0.40 0.0 0 1 842.71 744.32   L 826.91 744.32   A 0.60 0.60 0.0 0 1 826.31 743.72   L 826.31 665.04   A 0.64 0.64 0.0 0 1 826.95 664.40   L 840.90 664.40   A 1.59 1.57 67.9 0 1 842.04 664.89   C 850.52 673.85 862.84 687.60 873.09 698.51   Q 879.57 705.40 890.45 717.31   A 0.19 0.19 0.0 0 0 890.79 717.17   L 890.79 664.77   A 0.40 0.40 0.0 0 1 891.19 664.37   L 906.99 664.37   A 0.60 0.60 0.0 0 1 907.59 664.97   L 907.59 743.65   A 0.64 0.64 0.0 0 1 906.95 744.29   L 893.00 744.29   A 1.59 1.57 67.9 0 1 891.86 743.80   C 883.38 734.84 871.06 721.09 860.81 710.18   Z"
       id="path29"
       style="fill:#1c427d;fill-opacity:1" />
    <path
       d="   M 575.68 664.43   Q 600.87 664.47 615.17 664.58   A 0.49 0.49 0.0 0 1 615.66 665.07   L 615.66 680.70   A 0.38 0.37 90.0 0 1 615.29 681.08   L 584.87 681.08   A 0.44 0.43 0.0 0 0 584.43 681.51   L 584.31 743.96   A 0.47 0.47 0.0 0 1 583.88 744.43   Q 583.67 744.45 575.54 744.43   Q 567.41 744.42 567.20 744.40   A 0.47 0.47 0.0 0 1 566.77 743.93   L 566.87 681.48   A 0.44 0.43 0.2 0 0 566.43 681.05   L 536.01 680.94   A 0.38 0.37 -89.8 0 1 535.64 680.56   L 535.70 664.93   A 0.49 0.49 0.0 0 1 536.19 664.44   Q 550.49 664.39 575.68 664.43   Z"
       id="path30"
       style="fill:#1c427d;fill-opacity:1" />
    <path
       d="   M 711.31 743.97   A 0.21 0.20 69.4 0 1 711.16 744.31   L 689.42 744.31   A 1.07 1.05 69.1 0 1 688.62 743.94   L 669.49 721.34   A 1.54 1.53 69.5 0 0 668.33 720.81   L 646.32 720.81   A 0.21 0.21 0.0 0 0 646.11 721.02   L 646.11 743.45   A 0.88 0.87 -0.0 0 1 645.23 744.32   L 628.73 744.32   A 0.43 0.42 -0.0 0 1 628.30 743.90   L 628.30 705.16   A 0.46 0.46 0.0 0 1 628.77 704.70   Q 662.31 704.85 681.17 704.54   Q 688.00 704.43 689.63 697.74   Q 690.34 694.81 689.77 688.35   C 689.36 683.74 686.28 681.09 681.83 681.08   Q 657.61 681.04 628.71 681.08   A 0.46 0.45 89.4 0 1 628.25 680.62   L 628.25 664.98   A 0.50 0.50 0.0 0 1 628.75 664.48   Q 660.43 664.47 682.56 664.46   Q 689.53 664.46 693.16 665.79   C 704.07 669.80 708.17 679.10 707.76 690.28   Q 707.70 692.15 707.62 699.37   C 707.51 709.43 700.89 716.51 691.44 719.66   A 0.40 0.40 0.0 0 0 691.26 720.30   L 711.31 743.97   Z"
       id="path31"
       style="fill:#1c427d;fill-opacity:1" />
    <path
       d="   M 722.45 724.71   L 722.45 683.99   A 19.55 19.55 0.0 0 1 742.00 664.44   L 791.91 664.44   A 19.55 19.55 0.0 0 1 811.46 683.99   L 811.46 724.71   A 19.55 19.55 0.0 0 1 791.91 744.26   L 742.00 744.26   A 19.55 19.55 0.0 0 1 722.45 724.71   Z"
       id="path32"
       style="fill:#1c427d;fill-opacity:1" />
  </g>
</svg>
